<svg width="19" height="13" viewBox="0 0 19 13" fill="none" xmlns="http://www.w3.org/2000/svg">
<path d="M5.14616 12.8333C3.94546 12.8333 2.9196 12.4177 2.06855 11.5865C1.21751 10.7552 0.791992 9.73924 0.791992 8.53855C0.791992 7.50938 1.10206 6.59237 1.7222 5.78751C2.34234 4.98264 3.1538 4.46806 4.15658 4.24376C4.48644 3.02987 5.14616 2.04688 6.13574 1.2948C7.12533 0.542713 8.24685 0.166672 9.50033 0.166672C11.0441 0.166672 12.3536 0.704345 13.429 1.77969C14.5043 2.85504 15.042 4.16459 15.042 5.70834C15.9524 5.81389 16.7078 6.20643 17.3081 6.88594C17.9085 7.56546 18.2087 8.36042 18.2087 9.27084C18.2087 10.2604 17.8623 11.1016 17.1696 11.7943C16.4769 12.487 15.6357 12.8333 14.6462 12.8333H10.292C9.85658 12.8333 9.48383 12.6783 9.17376 12.3682C8.86369 12.0582 8.70866 11.6854 8.70866 11.25V7.17292L7.44199 8.40001L6.33366 7.29167L9.50033 4.12501L12.667 7.29167L11.5587 8.40001L10.292 7.17292V11.25H14.6462C15.2003 11.25 15.6687 11.0587 16.0514 10.676C16.434 10.2934 16.6253 9.82501 16.6253 9.27084C16.6253 8.71667 16.434 8.24827 16.0514 7.86563C15.6687 7.48299 15.2003 7.29167 14.6462 7.29167H13.4587V5.70834C13.4587 4.6132 13.0727 3.67969 12.3008 2.90782C11.529 2.13594 10.5955 1.75001 9.50033 1.75001C8.40519 1.75001 7.47168 2.13594 6.6998 2.90782C5.92793 3.67969 5.54199 4.6132 5.54199 5.70834H5.14616C4.38088 5.70834 3.72776 5.97883 3.18678 6.5198C2.64581 7.06077 2.37533 7.71389 2.37533 8.47917C2.37533 9.24445 2.64581 9.89758 3.18678 10.4385C3.72776 10.9795 4.38088 11.25 5.14616 11.25H7.12533V12.8333H5.14616Z" fill="#1C1B1F"/>
</svg>
