<svg width="20" height="20" viewBox="0 0 20 20" fill="none" xmlns="http://www.w3.org/2000/svg">
<rect width="20" height="20" rx="10" fill="#EEBE41"/>
<mask id="mask0_812_5919" style="mask-type:alpha" maskUnits="userSpaceOnUse" x="5" y="5" width="10" height="10">
<rect x="5" y="5" width="10" height="10" fill="#D9D9D9"/>
</mask>
<g mask="url(#mask0_812_5919)">
<path d="M8.78158 11.7709L10.0003 11.0313L11.2191 11.7709L10.8962 10.3854L11.9795 9.44794L10.5524 9.33335L10.0003 8.02085L9.44824 9.33335L8.02116 9.44794L9.10449 10.3854L8.78158 11.7709ZM10.0003 14.7084L8.60449 13.3334H6.66699V11.3959L5.29199 10L6.66699 8.60419V6.66669H8.60449L10.0003 5.29169L11.3962 6.66669H13.3337V8.60419L14.7087 10L13.3337 11.3959V13.3334H11.3962L10.0003 14.7084ZM10.0003 13.5417L11.042 12.5H12.5003V11.0417L13.542 10L12.5003 8.95835V7.50002H11.042L10.0003 6.45835L8.95866 7.50002H7.50033V8.95835L6.45866 10L7.50033 11.0417V12.5H8.95866L10.0003 13.5417Z" fill="white"/>
</g>
</svg>
