<svg width="41" height="41" viewBox="0 0 41 41" fill="none" xmlns="http://www.w3.org/2000/svg">
<path d="M20.5 40.375C14.9424 40.375 10.2405 39.5193 6.39427 37.8078C2.54809 36.0964 0.625 34.0076 0.625 31.5417V9.45833C0.625 7.02917 2.56649 4.94965 6.44948 3.21979C10.3325 1.48993 15.016 0.625 20.5 0.625C25.984 0.625 30.6675 1.48993 34.5505 3.21979C38.4335 4.94965 40.375 7.02917 40.375 9.45833V31.5417C40.375 34.0076 38.4519 36.0964 34.6057 37.8078C30.7595 39.5193 26.0576 40.375 20.5 40.375ZM20.5 13.9302C23.7757 13.9302 27.0698 13.4609 30.3823 12.5224C33.6948 11.5839 35.5535 10.5809 35.9583 9.51354C35.5535 8.44618 33.704 7.43403 30.4099 6.47708C27.1158 5.52014 23.8125 5.04167 20.5 5.04167C17.1507 5.04167 13.8658 5.51094 10.6453 6.44948C7.42483 7.38802 5.55694 8.40937 5.04167 9.51354C5.55694 10.6177 7.42483 11.6299 10.6453 12.55C13.8658 13.4701 17.1507 13.9302 20.5 13.9302ZM20.5 24.9167C22.0458 24.9167 23.5365 24.8431 24.9719 24.6958C26.4073 24.5486 27.7783 24.337 29.0849 24.0609C30.3915 23.7849 31.6245 23.4444 32.7839 23.0396C33.9432 22.6347 35.0014 22.1747 35.9583 21.6594V15.0344C35.0014 15.5497 33.9432 16.0097 32.7839 16.4146C31.6245 16.8194 30.3915 17.1599 29.0849 17.4359C27.7783 17.712 26.4073 17.9236 24.9719 18.0708C23.5365 18.2181 22.0458 18.2917 20.5 18.2917C18.9542 18.2917 17.4451 18.2181 15.9729 18.0708C14.5007 17.9236 13.1113 17.712 11.8047 17.4359C10.4981 17.1599 9.27431 16.8194 8.13333 16.4146C6.99236 16.0097 5.96181 15.5497 5.04167 15.0344V21.6594C5.96181 22.1747 6.99236 22.6347 8.13333 23.0396C9.27431 23.4444 10.4981 23.7849 11.8047 24.0609C13.1113 24.337 14.5007 24.5486 15.9729 24.6958C17.4451 24.8431 18.9542 24.9167 20.5 24.9167ZM20.5 35.9583C22.1931 35.9583 23.9137 35.8295 25.662 35.5719C27.4102 35.3142 29.0205 34.9738 30.4927 34.5505C31.9649 34.1273 33.1979 33.6488 34.1917 33.1151C35.1854 32.5814 35.7743 32.0385 35.9583 31.4865V26.076C35.0014 26.5913 33.9432 27.0514 32.7839 27.4563C31.6245 27.8611 30.3915 28.2016 29.0849 28.4776C27.7783 28.7536 26.4073 28.9653 24.9719 29.1125C23.5365 29.2597 22.0458 29.3333 20.5 29.3333C18.9542 29.3333 17.4451 29.2597 15.9729 29.1125C14.5007 28.9653 13.1113 28.7536 11.8047 28.4776C10.4981 28.2016 9.27431 27.8611 8.13333 27.4563C6.99236 27.0514 5.96181 26.5913 5.04167 26.076V31.5417C5.22569 32.0937 5.80538 32.6274 6.78073 33.1427C7.75608 33.658 8.97986 34.1273 10.4521 34.5505C11.9243 34.9738 13.5437 35.3142 15.3104 35.5719C17.0771 35.8295 18.8069 35.9583 20.5 35.9583Z" fill="#1C1B1F"/>
</svg>
