<svg width="41" height="45" viewBox="0 0 41 45" fill="none" xmlns="http://www.w3.org/2000/svg">
<path d="M15.2 32.4502L18.2917 29.2481L13.5437 24.5002L18.2917 19.7522L15.2 16.5502L7.25 24.5002L15.2 32.4502ZM25.8 32.4502L33.75 24.5002L25.8 16.5502L22.7083 19.7522L27.4563 24.5002L22.7083 29.2481L25.8 32.4502ZM5.04167 44.3752C3.82708 44.3752 2.78733 43.9427 1.9224 43.0778C1.05747 42.2128 0.625 41.1731 0.625 39.9585V9.04183C0.625 7.82725 1.05747 6.78749 1.9224 5.92256C2.78733 5.05763 3.82708 4.62516 5.04167 4.62516H14.3167C14.7951 3.30016 15.5957 2.2328 16.7182 1.42308C17.8408 0.613357 19.1014 0.208496 20.5 0.208496C21.8986 0.208496 23.1592 0.613357 24.2818 1.42308C25.4043 2.2328 26.2049 3.30016 26.6833 4.62516H35.9583C37.1729 4.62516 38.2127 5.05763 39.0776 5.92256C39.9425 6.78749 40.375 7.82725 40.375 9.04183V39.9585C40.375 41.1731 39.9425 42.2128 39.0776 43.0778C38.2127 43.9427 37.1729 44.3752 35.9583 44.3752H5.04167ZM5.04167 39.9585H35.9583V9.04183H5.04167V39.9585ZM20.5 7.38558C20.9785 7.38558 21.3741 7.22916 21.687 6.91631C21.9998 6.60346 22.1562 6.2078 22.1562 5.72933C22.1562 5.25086 21.9998 4.8552 21.687 4.54235C21.3741 4.2295 20.9785 4.07308 20.5 4.07308C20.0215 4.07308 19.6259 4.2295 19.313 4.54235C19.0002 4.8552 18.8438 5.25086 18.8438 5.72933C18.8438 6.2078 19.0002 6.60346 19.313 6.91631C19.6259 7.22916 20.0215 7.38558 20.5 7.38558Z" fill="#1C1B1F"/>
</svg>
