<svg width="20" height="17" viewBox="0 0 20 17" fill="none" xmlns="http://www.w3.org/2000/svg">
<path d="M0.833496 16.5001L10.0002 0.666748L19.1668 16.5001H0.833496ZM3.7085 14.8334H16.2918L10.0002 4.00008L3.7085 14.8334ZM10.0002 14.0001C10.2363 14.0001 10.4342 13.9202 10.5939 13.7605C10.7536 13.6008 10.8335 13.4029 10.8335 13.1667C10.8335 12.9306 10.7536 12.7327 10.5939 12.573C10.4342 12.4133 10.2363 12.3334 10.0002 12.3334C9.76405 12.3334 9.56614 12.4133 9.40641 12.573C9.24669 12.7327 9.16683 12.9306 9.16683 13.1667C9.16683 13.4029 9.24669 13.6008 9.40641 13.7605C9.56614 13.9202 9.76405 14.0001 10.0002 14.0001ZM9.16683 11.5001H10.8335V7.33341H9.16683V11.5001Z" fill="#FF001F" fill-opacity="0.7"/>
</svg>
