<svg width="17" height="17" viewBox="0 0 17 17" fill="none" xmlns="http://www.w3.org/2000/svg">
<path d="M5.33301 11.6666H14.833V9.29165H12.8143C12.5372 9.77984 12.1545 10.1658 11.6663 10.4495C11.1781 10.7331 10.6504 10.875 10.083 10.875C9.52884 10.875 9.00766 10.7331 8.51947 10.4495C8.03127 10.1658 7.64204 9.77984 7.35176 9.29165H5.33301V11.6666ZM10.083 9.29165C10.5316 9.29165 10.9077 9.13661 11.2111 8.82654C11.5146 8.51647 11.6663 8.14373 11.6663 7.70831H14.833V2.16665H5.33301V7.70831H8.49967C8.49967 8.14373 8.65471 8.51647 8.96478 8.82654C9.27485 9.13661 9.64759 9.29165 10.083 9.29165ZM5.33301 13.25C4.89759 13.25 4.52485 13.0949 4.21478 12.7849C3.90471 12.4748 3.74967 12.1021 3.74967 11.6666V2.16665C3.74967 1.73123 3.90471 1.35849 4.21478 1.04842C4.52485 0.738348 4.89759 0.583313 5.33301 0.583313H14.833C15.2684 0.583313 15.6412 0.738348 15.9512 1.04842C16.2613 1.35849 16.4163 1.73123 16.4163 2.16665V11.6666C16.4163 12.1021 16.2613 12.4748 15.9512 12.7849C15.6412 13.0949 15.2684 13.25 14.833 13.25H5.33301ZM2.16634 16.4166C1.73092 16.4166 1.35818 16.2616 1.04811 15.9515C0.738043 15.6415 0.583008 15.2687 0.583008 14.8333V3.74998H2.16634V14.8333H13.2497V16.4166H2.16634Z" fill="#1C1B1F"/>
</svg>
