<svg width="15" height="15" viewBox="0 0 15 15" fill="none" xmlns="http://www.w3.org/2000/svg">
<path d="M13.7938 14.625C12.1444 14.625 10.5149 14.2655 8.90521 13.5464C7.29549 12.8273 5.8309 11.808 4.51146 10.4885C3.19201 9.1691 2.17274 7.70451 1.45365 6.09479C0.734549 4.48507 0.375 2.85556 0.375 1.20625C0.375 0.96875 0.454167 0.770833 0.6125 0.6125C0.770833 0.454167 0.96875 0.375 1.20625 0.375H4.4125C4.59722 0.375 4.76215 0.437674 4.90729 0.563021C5.05243 0.688368 5.13819 0.836806 5.16458 1.00833L5.67917 3.77917C5.70556 3.99028 5.69896 4.1684 5.65938 4.31354C5.61979 4.45868 5.54722 4.58403 5.44167 4.68958L3.52188 6.62917C3.78576 7.11736 4.09913 7.58906 4.46198 8.04427C4.82483 8.49948 5.22396 8.9382 5.65938 9.36042C6.0684 9.76945 6.49722 10.1488 6.94583 10.4984C7.39444 10.8481 7.86944 11.1681 8.37083 11.4583L10.2312 9.59792C10.35 9.47917 10.505 9.3901 10.6964 9.33073C10.8877 9.27135 11.0757 9.25486 11.2604 9.28125L13.9917 9.83542C14.1764 9.88819 14.3281 9.98385 14.4469 10.1224C14.5656 10.2609 14.625 10.416 14.625 10.5875V13.7938C14.625 14.0313 14.5458 14.2292 14.3875 14.3875C14.2292 14.5458 14.0313 14.625 13.7938 14.625ZM2.76979 5.125L4.07604 3.81875L3.73958 1.95833H1.97813C2.0441 2.49931 2.13646 3.03368 2.25521 3.56146C2.37396 4.08924 2.54549 4.61042 2.76979 5.125ZM9.85521 12.2104C10.3698 12.4347 10.8943 12.6128 11.4286 12.7448C11.963 12.8767 12.5007 12.9625 13.0417 13.0021V11.2604L11.1813 10.8844L9.85521 12.2104Z" fill="#1C1B1F"/>
</svg>
