<svg width="19" height="19" viewBox="0 0 19 19" fill="none" xmlns="http://www.w3.org/2000/svg">
<mask id="mask0_783_3693" style="mask-type:alpha" maskUnits="userSpaceOnUse" x="0" y="0" width="19" height="19">
<rect width="19" height="19" fill="#D9D9D9"/>
</mask>
<g mask="url(#mask0_783_3693)">
<path d="M15.7938 16.625C14.1444 16.625 12.5149 16.2655 10.9052 15.5464C9.29549 14.8273 7.8309 13.808 6.51146 12.4885C5.19201 11.1691 4.17274 9.70451 3.45365 8.09479C2.73455 6.48507 2.375 4.85556 2.375 3.20625C2.375 2.96875 2.45417 2.77083 2.6125 2.6125C2.77083 2.45417 2.96875 2.375 3.20625 2.375H6.4125C6.59722 2.375 6.76215 2.43767 6.90729 2.56302C7.05243 2.68837 7.13819 2.83681 7.16458 3.00833L7.67917 5.77917C7.70556 5.99028 7.69896 6.1684 7.65938 6.31354C7.61979 6.45868 7.54722 6.58403 7.44167 6.68958L5.52188 8.62917C5.78576 9.11736 6.09913 9.58906 6.46198 10.0443C6.82483 10.4995 7.22396 10.9382 7.65938 11.3604C8.0684 11.7694 8.49722 12.1488 8.94583 12.4984C9.39444 12.8481 9.86944 13.1681 10.3708 13.4583L12.2312 11.5979C12.35 11.4792 12.505 11.3901 12.6964 11.3307C12.8877 11.2714 13.0757 11.2549 13.2604 11.2812L15.9917 11.8354C16.1764 11.8882 16.3281 11.9839 16.4469 12.1224C16.5656 12.2609 16.625 12.416 16.625 12.5875V15.7938C16.625 16.0313 16.5458 16.2292 16.3875 16.3875C16.2292 16.5458 16.0313 16.625 15.7938 16.625ZM4.76979 7.125L6.07604 5.81875L5.73958 3.95833H3.97813C4.0441 4.49931 4.13646 5.03368 4.25521 5.56146C4.37396 6.08924 4.54549 6.61042 4.76979 7.125ZM11.8552 14.2104C12.3698 14.4347 12.8943 14.6128 13.4286 14.7448C13.963 14.8767 14.5007 14.9625 15.0417 15.0021V13.2604L13.1813 12.8844L11.8552 14.2104Z" fill="#1C1B1F"/>
</g>
</svg>
