<svg width="19" height="19" viewBox="0 0 19 19" fill="none" xmlns="http://www.w3.org/2000/svg">
<g clip-path="url(#clip0_783_3681)">
<path d="M16.0843 3.28985C14.8733 2.73419 13.5747 2.32481 12.2169 2.09034C12.1922 2.08581 12.1675 2.09712 12.1548 2.11974C11.9877 2.41679 11.8027 2.80431 11.6732 3.10889C10.2128 2.89026 8.75994 2.89026 7.3295 3.10889C7.19993 2.79754 7.00822 2.41679 6.84046 2.11974C6.82772 2.09788 6.80302 2.08657 6.77829 2.09034C5.42126 2.32406 4.12265 2.73344 2.91091 3.28985C2.90042 3.29437 2.89143 3.30192 2.88546 3.31171C0.422268 6.99166 -0.252502 10.5812 0.0785176 14.1262C0.0800154 14.1435 0.0897511 14.1601 0.103232 14.1706C1.72837 15.3641 3.3026 16.0887 4.8476 16.5689C4.87232 16.5764 4.89852 16.5674 4.91426 16.547C5.27973 16.0479 5.60551 15.5217 5.88484 14.9683C5.90132 14.9359 5.88558 14.8974 5.85189 14.8846C5.33515 14.6886 4.8431 14.4496 4.36979 14.1782C4.33235 14.1563 4.32935 14.1028 4.36379 14.0771C4.46339 14.0025 4.56302 13.9248 4.65813 13.8464C4.67534 13.8321 4.69932 13.8291 4.71955 13.8381C7.82902 15.2578 11.1954 15.2578 14.2682 13.8381C14.2884 13.8283 14.3124 13.8314 14.3303 13.8457C14.4255 13.9241 14.5251 14.0025 14.6254 14.0771C14.6599 14.1028 14.6576 14.1563 14.6202 14.1782C14.1469 14.4549 13.6548 14.6886 13.1373 14.8839C13.1036 14.8967 13.0886 14.9359 13.1051 14.9683C13.3905 15.5209 13.7162 16.0472 14.075 16.5463C14.0899 16.5674 14.1169 16.5764 14.1416 16.5689C15.6941 16.0887 17.2683 15.3641 18.8935 14.1706C18.9077 14.1601 18.9167 14.1443 18.9182 14.1269C19.3144 10.0285 18.2546 6.46844 16.109 3.31246C16.1038 3.30192 16.0948 3.29437 16.0843 3.28985ZM6.34918 11.9676C5.41302 11.9676 4.64165 11.1082 4.64165 10.0526C4.64165 8.99713 5.39806 8.13766 6.34918 8.13766C7.30777 8.13766 8.07168 9.00467 8.0567 10.0526C8.0567 11.1082 7.30028 11.9676 6.34918 11.9676ZM12.6625 11.9676C11.7264 11.9676 10.955 11.1082 10.955 10.0526C10.955 8.99713 11.7114 8.13766 12.6625 8.13766C13.6211 8.13766 14.385 9.00467 14.37 10.0526C14.37 11.1082 13.6211 11.9676 12.6625 11.9676Z" fill="#5865F2"/>
</g>
<defs>
<clipPath id="clip0_783_3681">
<rect width="19" height="19" fill="white"/>
</clipPath>
</defs>
</svg>
