<svg width="19" height="19" viewBox="0 0 19 19" fill="none" xmlns="http://www.w3.org/2000/svg">
<path d="M11.1071 5.529C11.1071 6.99538 10.522 8.4017 9.48048 9.43859C8.43899 10.4755 7.02643 11.058 5.55354 11.058C4.08065 11.058 2.66808 10.4755 1.62659 9.43859C0.585103 8.4017 6.74863e-10 6.99538 0 5.529C0 4.06262 0.585103 2.65629 1.62659 1.61941C2.66808 0.582518 4.08065 0 5.55354 0C7.02643 0 8.43899 0.582518 9.48048 1.61941C10.522 2.65629 11.1071 4.06262 11.1071 5.529Z" fill="url(#paint0_linear_783_3654)"/>
<path d="M18.8462 13.4691C18.8462 14.1954 18.7025 14.9146 18.4233 15.5857C18.1442 16.2567 17.7349 16.8664 17.2191 17.38C16.7032 17.8936 16.0908 18.301 15.4168 18.579C14.7427 18.8569 14.0203 19 13.2908 19C11.8174 19 10.4043 18.4173 9.3625 17.38C8.32065 16.3428 7.73535 14.936 7.73535 13.4691C7.73535 12.0022 8.32065 10.5954 9.3625 9.55813C10.4043 8.52089 11.8174 7.93817 13.2908 7.93817C14.0203 7.93817 14.7427 8.08123 15.4168 8.35919C16.0908 8.63714 16.7032 9.04454 17.2191 9.55813C17.7349 10.0717 18.1442 10.6814 18.4233 11.3525C18.7025 12.0235 18.8462 12.7427 18.8462 13.4691Z" fill="url(#paint1_linear_783_3654)"/>
<path opacity="0.05" fill-rule="evenodd" clip-rule="evenodd" d="M0.0205078 6.00214C0.106769 7.04681 0.487607 8.04568 1.11889 8.883C1.75018 9.72032 2.60607 10.3618 3.58739 10.7332C4.5687 11.1045 5.63528 11.1905 6.66352 10.9812C7.69176 10.7719 8.63958 10.2758 9.39713 9.55045C10.1547 8.82511 10.691 7.90019 10.9439 6.88287C11.1968 5.86555 11.1559 4.79747 10.826 3.80241C10.4961 2.80734 9.89064 1.92602 9.07985 1.26057C8.26906 0.595119 7.2861 0.172776 6.24486 0.0424805C4.83105 0.51489 3.5396 1.29435 2.46336 2.32482C1.38713 3.35529 0.552848 4.61117 0.0205078 6.00214Z" fill="black"/>
<path opacity="0.05" fill-rule="evenodd" clip-rule="evenodd" d="M18.832 13.072C18.7594 12.0146 18.3852 11 17.7536 10.1484C17.122 9.29676 16.2594 8.64363 15.2679 8.26626C14.2764 7.8889 13.1974 7.80309 12.1586 8.01899C11.1198 8.23489 10.1646 8.74347 9.40609 9.48456C8.64754 10.2257 8.11735 11.1683 7.87824 12.2009C7.63913 13.2335 7.70109 14.3129 8.05681 15.3114C8.41252 16.31 9.0471 17.1859 9.88549 17.8355C10.7239 18.4851 11.731 18.8813 12.7877 18.9772C14.1629 18.4881 15.4154 17.7067 16.4589 16.6871C17.5025 15.6675 18.3121 14.4339 18.832 13.0713V13.072Z" fill="black"/>
<path opacity="0.1" fill-rule="evenodd" clip-rule="evenodd" d="M0.280273 7.26627C0.571971 8.15762 1.08522 8.9605 1.77202 9.59984C2.45881 10.2392 3.29672 10.6941 4.20738 10.922C5.11803 11.1499 6.07168 11.1434 6.97913 10.9031C7.88658 10.6627 8.71819 10.1964 9.39617 9.5478C10.0742 8.89914 10.5764 8.08932 10.8558 7.19408C11.1353 6.29884 11.1829 5.34741 10.9942 4.42879C10.8055 3.51018 10.3866 2.65437 9.77675 1.94143C9.16689 1.22848 8.38597 0.681684 7.50703 0.352173C5.77495 0.712626 4.1791 1.55191 2.90136 2.77436C1.62363 3.99681 0.715427 5.55325 0.280273 7.26627Z" fill="black"/>
<path opacity="0.1" fill-rule="evenodd" clip-rule="evenodd" d="M18.5795 11.7724C18.2921 10.8705 17.7785 10.0571 17.0874 9.40954C16.3963 8.76198 15.5509 8.30183 14.6315 8.07287C13.7121 7.84392 12.7494 7.85378 11.8349 8.10151C10.9204 8.34923 10.0845 8.82659 9.4069 9.48816C8.72928 10.1497 8.2324 10.9735 7.96356 11.8811C7.69471 12.7887 7.66284 13.7499 7.87097 14.6732C8.0791 15.5966 8.52031 16.4514 9.15262 17.1563C9.78493 17.8612 10.5873 18.3928 11.4834 18.7004C13.1933 18.3171 14.7627 17.4661 16.0159 16.2425C17.2692 15.019 18.1568 13.4712 18.5795 11.7724Z" fill="black"/>
<path opacity="0.1" fill-rule="evenodd" clip-rule="evenodd" d="M0.484375 7.79063C0.845715 8.60392 1.39773 9.31837 2.09378 9.87363C2.78983 10.4289 3.60946 10.8086 4.4834 10.9807C5.35735 11.1529 6.25993 11.1123 7.11489 10.8626C7.96985 10.6128 8.75205 10.1611 9.3954 9.5457C10.0388 8.93029 10.5244 8.16923 10.8112 7.32683C11.098 6.48444 11.1776 5.58545 11.0432 4.70585C10.9089 3.82624 10.5646 2.99186 10.0393 2.27321C9.51411 1.55456 8.82341 0.972758 8.02562 0.576965C6.18059 0.863833 4.46813 1.70938 3.11953 2.9994C1.77092 4.28943 0.85113 5.96179 0.484375 7.79063Z" fill="black"/>
<path opacity="0.1" fill-rule="evenodd" clip-rule="evenodd" d="M18.3751 11.2372C18.0156 10.4145 17.4615 9.69127 16.7605 9.12962C16.0595 8.56798 15.2324 8.18472 14.3504 8.01278C13.4683 7.84083 12.5577 7.88534 11.6967 8.14248C10.8357 8.39962 10.05 8.86171 9.40725 9.48904C8.76446 10.1164 8.28373 10.8902 8.00638 11.744C7.72902 12.5979 7.66332 13.5062 7.81491 14.391C7.96651 15.2758 8.33088 16.1107 8.87672 16.8238C9.42255 17.5369 10.1335 18.107 10.9486 18.4851C12.7775 18.1747 14.4681 17.3146 15.795 16.0197C17.1219 14.7247 18.0219 13.0564 18.3751 11.2372Z" fill="black"/>
<path d="M18.2199 9.54116C18.2199 10.6912 17.9924 11.8299 17.5504 12.8924C17.1083 13.9548 16.4604 14.9202 15.6437 15.7334C14.8269 16.5465 13.8572 17.1916 12.79 17.6317C11.7228 18.0717 10.579 18.2983 9.42393 18.2983C8.26883 18.2983 7.12503 18.0717 6.05785 17.6317C4.99067 17.1916 4.021 16.5465 3.20422 15.7334C2.38744 14.9202 1.73953 13.9548 1.29749 12.8924C0.855445 11.8299 0.62793 10.6912 0.62793 9.54116C0.62793 8.39116 0.855445 7.25242 1.29749 6.18996C1.73953 5.1275 2.38744 4.16212 3.20422 3.34895C4.021 2.53578 4.99067 1.89074 6.05785 1.45065C7.12503 1.01057 8.26883 0.784058 9.42393 0.784058C10.579 0.784058 11.7228 1.01057 12.79 1.45065C13.8572 1.89074 14.8269 2.53578 15.6437 3.34895C16.4604 4.16212 17.1083 5.1275 17.5504 6.18996C17.9924 7.25242 18.2199 8.39116 18.2199 9.54116Z" fill="url(#paint2_linear_783_3654)"/>
<path fill-rule="evenodd" clip-rule="evenodd" d="M6.95066 9.23717C6.5952 9.00348 6.29858 8.69094 6.08393 8.32391C5.87669 7.93614 5.77441 7.50105 5.7872 7.06167C5.77149 6.50407 5.962 5.96024 6.32233 5.53408C6.6968 5.10611 7.17808 4.78488 7.71721 4.60308C8.30357 4.39616 8.92138 4.29223 9.54324 4.29591C9.9501 4.29207 10.3565 4.32322 10.7581 4.38901C11.0454 4.43334 11.3277 4.50611 11.6007 4.60624C11.8514 4.69099 12.0776 4.83531 12.2601 5.02678C12.3945 5.18431 12.4669 5.38537 12.4636 5.59234C12.4684 5.69987 12.4519 5.80728 12.4152 5.90845C12.3784 6.00962 12.322 6.10256 12.2493 6.18198C12.1805 6.25515 12.0969 6.31296 12.0042 6.3516C11.9114 6.39024 11.8115 6.40884 11.711 6.40618C11.5728 6.40504 11.4364 6.37437 11.3109 6.31624C11.0018 6.17804 10.6834 6.06164 10.358 5.96791C10.0584 5.88901 9.74965 5.85067 9.43989 5.85391C9.03617 5.83907 8.63675 5.94112 8.28975 6.14778C8.14331 6.23665 8.02346 6.36318 7.94271 6.51414C7.86196 6.6651 7.82328 6.83495 7.8307 7.00594C7.82857 7.23044 7.91408 7.44694 8.0691 7.60951C8.25331 7.80048 8.471 7.95611 8.71138 8.06867C8.98064 8.2021 9.38219 8.37901 9.91605 8.59941C9.97518 8.61811 10.0328 8.64119 10.0885 8.66844C10.6095 8.8743 11.109 9.13076 11.5798 9.43414C11.9516 9.67631 12.2651 9.99771 12.4979 10.3753C12.727 10.7721 12.8418 11.2245 12.8295 11.6825C12.8487 12.2432 12.6878 12.7953 12.3704 13.2582C12.0472 13.6964 11.6 14.028 11.0865 14.2101C10.4676 14.431 9.81357 14.5374 9.15648 14.5242C8.25351 14.5558 7.35486 14.386 6.52585 14.0271C6.31392 13.9328 6.1281 13.7885 5.98439 13.6065C5.86507 13.4398 5.80321 13.2389 5.80812 13.034C5.8022 12.9259 5.81983 12.8179 5.85978 12.7173C5.89974 12.6167 5.96107 12.526 6.03955 12.4513C6.20408 12.3074 6.41767 12.2322 6.63618 12.2411C6.87964 12.2444 7.11878 12.3058 7.33362 12.4203C7.60076 12.5537 7.81147 12.6538 7.96575 12.7205C8.14195 12.7942 8.32445 12.8519 8.51103 12.8928C8.74109 12.9432 8.97612 12.9674 9.21164 12.965C9.62814 12.9947 10.0426 12.8843 10.389 12.6515C10.5187 12.5501 10.6224 12.4193 10.6914 12.27C10.7604 12.1206 10.7928 11.957 10.786 11.7927C10.7863 11.5596 10.6974 11.3353 10.5374 11.1657C10.326 10.9476 10.0784 10.7677 9.80573 10.6337C9.48322 10.4639 9.02967 10.2571 8.44509 10.013C7.92226 9.80489 7.42162 9.54499 6.95066 9.23717Z" fill="white"/>
<defs>
<linearGradient id="paint0_linear_783_3654" x1="4.68744" y1="0.0671333" x2="6.41588" y2="10.9915" gradientUnits="userSpaceOnUse">
<stop offset="0.012" stop-color="#00B7F0"/>
<stop offset="0.339" stop-color="#009DE5"/>
<stop offset="0.755" stop-color="#0082D9"/>
<stop offset="1" stop-color="#0078D4"/>
</linearGradient>
<linearGradient id="paint1_linear_783_3654" x1="8.48225" y1="16.2418" x2="18.0934" y2="10.6871" gradientUnits="userSpaceOnUse">
<stop stop-color="#0078D4"/>
<stop offset="0.37" stop-color="#007AD5"/>
<stop offset="0.573" stop-color="#0082D9"/>
<stop offset="0.735" stop-color="#0090DF"/>
<stop offset="0.875" stop-color="#00A3E7"/>
<stop offset="1" stop-color="#00BCF2"/>
</linearGradient>
<linearGradient id="paint2_linear_783_3654" x1="5.99126" y1="3.60302" x2="14.7523" y2="18.7944" gradientUnits="userSpaceOnUse">
<stop stop-color="#00B7F0"/>
<stop offset="1" stop-color="#007CC1"/>
</linearGradient>
</defs>
</svg>
