<svg width="17" height="9" viewBox="0 0 17 9" fill="none" xmlns="http://www.w3.org/2000/svg">
<path d="M7.70801 8.45835H4.54134C3.4462 8.45835 2.5127 8.07242 1.74082 7.30054C0.968945 6.52867 0.583008 5.59516 0.583008 4.50002C0.583008 3.40488 0.968945 2.47137 1.74082 1.6995C2.5127 0.927624 3.4462 0.541687 4.54134 0.541687H7.70801V2.12502H4.54134C3.88162 2.12502 3.32085 2.35592 2.85905 2.81773C2.39724 3.27953 2.16634 3.8403 2.16634 4.50002C2.16634 5.15974 2.39724 5.72051 2.85905 6.18231C3.32085 6.64412 3.88162 6.87502 4.54134 6.87502H7.70801V8.45835ZM5.33301 5.29169V3.70835H11.6663V5.29169H5.33301ZM9.29134 8.45835V6.87502H12.458C13.1177 6.87502 13.6785 6.64412 14.1403 6.18231C14.6021 5.72051 14.833 5.15974 14.833 4.50002C14.833 3.8403 14.6021 3.27953 14.1403 2.81773C13.6785 2.35592 13.1177 2.12502 12.458 2.12502H9.29134V0.541687H12.458C13.5531 0.541687 14.4867 0.927624 15.2585 1.6995C16.0304 2.47137 16.4163 3.40488 16.4163 4.50002C16.4163 5.59516 16.0304 6.52867 15.2585 7.30054C14.4867 8.07242 13.5531 8.45835 12.458 8.45835H9.29134Z" fill="#1C1B1F"/>
</svg>
