<svg width="19" height="19" viewBox="0 0 19 19" fill="none" xmlns="http://www.w3.org/2000/svg">
<path d="M9.5 0C4.14913 0 0 3.92102 0 9.21475C0 11.9839 1.13525 14.3779 2.983 16.0308C3.13737 16.1686 3.23238 16.3633 3.23712 16.5723L3.28938 18.2632C3.29318 18.3877 3.32749 18.5092 3.38928 18.6173C3.45108 18.7254 3.53847 18.8166 3.64378 18.8829C3.74909 18.9493 3.86908 18.9888 3.99323 18.9979C4.11737 19.0071 4.24186 18.9856 4.35575 18.9354L6.2415 18.1041C6.40062 18.0329 6.58113 18.021 6.74975 18.0661C7.61663 18.3036 8.53813 18.4319 9.5 18.4319C14.8509 18.4319 19 14.5109 19 9.21712C19 3.92339 14.8509 0 9.5 0Z" fill="url(#paint0_radial_783_3163)"/>
<path d="M3.79527 11.9103L6.5859 7.48345C6.69088 7.31678 6.82927 7.17368 6.99235 7.06319C7.15542 6.95271 7.33963 6.87723 7.53334 6.84152C7.72706 6.80581 7.92607 6.81065 8.11782 6.85574C8.30957 6.90082 8.48989 6.98517 8.6474 7.10346L10.868 8.76829C10.9672 8.8425 11.0878 8.88242 11.2116 8.88199C11.3354 8.88156 11.4558 8.84081 11.5544 8.76591L14.5516 6.49072C14.9506 6.18673 15.4731 6.66647 15.2071 7.09158L12.4141 11.5161C12.3092 11.6828 12.1708 11.8258 12.0077 11.9363C11.8446 12.0468 11.6604 12.1223 11.4667 12.158C11.273 12.1937 11.074 12.1889 10.8822 12.1438C10.6905 12.0987 10.5102 12.0144 10.3526 11.8961L8.13202 10.2312C8.03289 10.157 7.91228 10.1171 7.78844 10.1175C7.6646 10.118 7.54427 10.1587 7.44565 10.2336L4.4484 12.5088C4.0494 12.8128 3.5269 12.3354 3.79527 11.9103Z" fill="white"/>
<defs>
<radialGradient id="paint0_radial_783_3163" cx="0" cy="0" r="1" gradientUnits="userSpaceOnUse" gradientTransform="translate(3.1825 18.9995) scale(20.9 20.8994)">
<stop stop-color="#0099FF"/>
<stop offset="0.6" stop-color="#A033FF"/>
<stop offset="0.9" stop-color="#FF5280"/>
<stop offset="1" stop-color="#FF7061"/>
</radialGradient>
</defs>
</svg>
