<svg width="19" height="19" viewBox="0 0 19 19" fill="none" xmlns="http://www.w3.org/2000/svg">
<path d="M17.6517 13.9964C14.7095 12.5717 14.2405 10.372 14.2196 10.2088C14.1944 10.0112 14.1658 9.85582 14.3837 9.65478C14.5939 9.46055 15.5265 8.88318 15.7852 8.70254C16.2129 8.40342 16.4012 8.10478 16.2624 7.73768C16.1653 7.48372 15.9289 7.38805 15.6799 7.38805C15.6013 7.38829 15.523 7.39709 15.4464 7.41428C14.9765 7.51625 14.5201 7.75176 14.2561 7.81537C14.2243 7.82356 14.1917 7.82796 14.159 7.82848C14.0182 7.82848 13.9648 7.76584 13.9784 7.59637C14.0114 7.08262 14.0813 6.07988 14.0002 5.14318C13.8891 3.85443 13.4735 3.21588 12.9808 2.65114C12.7424 2.37727 11.6356 1.20068 9.49968 1.20068C7.36373 1.20068 6.25837 2.37727 6.02148 2.64774C5.5273 3.21248 5.11224 3.85103 5.00205 5.13978C4.92098 6.07648 4.99379 7.07873 5.02389 7.59297C5.0336 7.75419 4.98408 7.82508 4.84331 7.82508C4.81054 7.82452 4.77796 7.82012 4.74622 7.81197C4.48262 7.74836 4.0263 7.51285 3.55639 7.41088C3.47974 7.39369 3.40145 7.3849 3.3229 7.38466C3.07289 7.38466 2.83745 7.48177 2.74036 7.73428C2.60153 8.10138 2.78891 8.40002 3.21804 8.69914C3.47678 8.87978 4.40932 9.45666 4.61952 9.65138C4.837 9.85242 4.80884 10.0078 4.7836 10.2054C4.76272 10.371 4.2933 12.5707 1.35151 13.993C1.17918 14.0766 0.885969 14.2533 1.40297 14.5388C2.21463 14.9875 2.75493 14.9394 3.17484 15.2099C3.53115 15.4396 3.32047 15.9349 3.5797 16.1136C3.89815 16.3336 4.83942 16.0981 6.05546 16.4996C7.07489 16.8357 7.69432 17.785 9.50211 17.785C11.3099 17.785 11.9473 16.8313 12.9488 16.4996C14.1624 16.0981 15.1056 16.3336 15.4245 16.1136C15.6833 15.9349 15.4731 15.4396 15.8294 15.2099C16.2493 14.9394 16.7891 14.9875 17.6012 14.5388C18.1173 14.2567 17.8241 14.08 17.6517 13.9964Z" fill="white"/>
<path d="M18.9321 13.8292C18.8 13.4699 18.5486 13.2776 18.2622 13.1183C18.2083 13.0868 18.1588 13.0615 18.1165 13.0421C18.0311 12.9979 17.9437 12.9552 17.8568 12.91C16.9641 12.4366 16.267 11.8393 15.7835 11.1313C15.6462 10.932 15.5271 10.7207 15.4277 10.5C15.3864 10.382 15.3883 10.315 15.4179 10.2538C15.4473 10.2067 15.4862 10.1662 15.532 10.1349C15.6854 10.0334 15.8437 9.93045 15.951 9.86101C16.1422 9.73718 16.2937 9.63909 16.3913 9.56965C16.7578 9.31326 17.0141 9.04085 17.1743 8.73638C17.2861 8.52603 17.3512 8.29407 17.3654 8.05627C17.3795 7.81848 17.3423 7.58042 17.2563 7.35828C17.0136 6.71925 16.4102 6.32252 15.6791 6.32252C15.5249 6.32238 15.3711 6.33865 15.2204 6.37108C15.1801 6.37982 15.1398 6.38905 15.1005 6.39924C15.1073 5.96221 15.0976 5.50091 15.0587 5.04688C14.9209 3.45075 14.3621 2.61408 13.7796 1.94688C13.4065 1.52879 12.9671 1.17507 12.4791 0.899953C11.5951 0.394941 10.5926 0.13855 9.4999 0.13855C8.40717 0.13855 7.40958 0.394941 6.52462 0.899953C6.03535 1.17515 5.59507 1.52958 5.22169 1.94882C4.63916 2.61602 4.08041 3.45415 3.94255 5.04882C3.90371 5.50285 3.894 5.96659 3.90031 6.40119C3.86099 6.39099 3.82119 6.38176 3.78089 6.37302C3.63014 6.3406 3.47635 6.32432 3.32215 6.32446C2.59059 6.32446 1.98621 6.72119 1.74446 7.36023C1.65805 7.58245 1.62047 7.82068 1.6343 8.05873C1.64812 8.29678 1.71301 8.52906 1.82456 8.73978C1.98524 9.04425 2.24155 9.31666 2.60806 9.57305C2.70515 9.64104 2.85709 9.73912 3.04836 9.86441C3.15176 9.93142 3.30273 10.0295 3.45079 10.1276C3.50259 10.1611 3.54662 10.2053 3.57992 10.2572C3.61099 10.3209 3.61196 10.3893 3.56584 10.5156C3.46775 10.7316 3.35062 10.9385 3.21584 11.1337C2.74302 11.8257 2.06631 12.4123 1.20222 12.8819C0.744444 13.1246 0.268709 13.2868 0.0677355 13.8331C-0.0837229 14.2454 0.0153075 14.7145 0.400264 15.1097C0.541547 15.2573 0.705413 15.3813 0.885708 15.4773C1.26085 15.6836 1.65976 15.8432 2.07359 15.9527C2.15899 15.9747 2.24006 16.011 2.3134 16.06C2.45369 16.1829 2.43379 16.3679 2.62068 16.6389C2.7145 16.7789 2.83371 16.9001 2.97214 16.9962C3.36438 17.2672 3.80517 17.2842 4.27216 17.3022C4.69401 17.3182 5.17218 17.3366 5.7183 17.5168C5.94452 17.5916 6.17947 17.7363 6.4518 17.9053C7.1057 18.3073 8.00085 18.8575 9.49893 18.8575C10.997 18.8575 11.8985 18.3044 12.5572 17.9009C12.8276 17.7348 13.0611 17.5916 13.281 17.5187C13.8272 17.3381 14.3053 17.3201 14.7272 17.3041C15.1942 17.2861 15.6349 17.2691 16.0272 16.9982C16.1911 16.8838 16.3277 16.7346 16.4272 16.5612C16.5617 16.3324 16.5583 16.1727 16.6845 16.061C16.7533 16.0143 16.8294 15.9795 16.9097 15.9581C17.3292 15.8482 17.7335 15.6871 18.1136 15.4783C18.3052 15.3755 18.4776 15.2405 18.6233 15.0791L18.6282 15.0733C18.9894 14.6868 19.0801 14.2313 18.9321 13.8292ZM17.6005 14.545C16.7884 14.9937 16.2485 14.9456 15.8286 15.2161C15.4718 15.4458 15.683 15.9411 15.4238 16.1198C15.1053 16.3397 14.164 16.1042 12.948 16.5058C11.9451 16.8375 11.3053 17.7912 9.50136 17.7912C7.69745 17.7912 7.07269 16.8394 6.05326 16.5034C4.83965 16.1018 3.89643 16.3373 3.57749 16.1173C3.31875 15.9386 3.52895 15.4433 3.17263 15.2136C2.75224 14.9432 2.21243 14.9913 1.40076 14.545C0.883766 14.2595 1.17697 14.0827 1.34931 13.9992C4.29109 12.5745 4.76052 10.3748 4.78139 10.2116C4.80664 10.014 4.83479 9.85858 4.61731 9.65755C4.40712 9.46331 3.47458 8.88595 3.21584 8.70531C2.78768 8.40618 2.59932 8.10755 2.73816 7.74044C2.83525 7.48648 3.07215 7.39082 3.32069 7.39082C3.39925 7.39106 3.47754 7.39985 3.55419 7.41704C4.0241 7.51901 4.48042 7.75452 4.74401 7.81814C4.77575 7.82628 4.80834 7.83069 4.8411 7.83125C4.98188 7.83125 5.0314 7.76035 5.02169 7.59914C4.99159 7.0849 4.91877 6.08264 4.99984 5.14594C5.11101 3.85719 5.52606 3.21864 6.01927 2.6539C6.25617 2.38246 7.36929 1.20587 9.49796 1.20587C11.6266 1.20587 12.7427 2.3776 12.9796 2.64807C13.4733 3.21281 13.8888 3.85136 13.999 5.14011C14.0801 6.07681 14.0102 7.07955 13.9772 7.59331C13.966 7.76278 14.017 7.82542 14.1577 7.82542C14.1905 7.82489 14.2231 7.82049 14.2548 7.81231C14.5189 7.7487 14.9752 7.51319 15.4451 7.41121C15.5218 7.39402 15.6001 7.38523 15.6786 7.38499C15.9286 7.38499 16.1641 7.48211 16.2612 7.73461C16.4 8.10172 16.2126 8.40036 15.784 8.69948C15.5252 8.88012 14.5927 9.457 14.3825 9.65172C14.1645 9.85275 14.1932 10.0081 14.2184 10.2058C14.2393 10.3714 14.7082 12.5711 17.6505 13.9934C17.8243 14.0803 18.1175 14.257 17.6005 14.545Z" fill="black"/>
</svg>
