<svg width="19" height="19" viewBox="0 0 19 19" fill="none" xmlns="http://www.w3.org/2000/svg">
<path d="M13.5977 6.85862C14.8195 7.73513 16.3163 8.25085 17.9329 8.25085V5.12894C17.627 5.12901 17.3218 5.09699 17.0225 5.03335V7.49074C15.406 7.49074 13.9094 6.97501 12.6873 6.09857V12.4695C12.6873 15.6565 10.1129 18.24 6.93732 18.24C5.75245 18.24 4.65117 17.8805 3.73633 17.264C4.78047 18.3354 6.2366 19 7.84755 19C11.0233 19 13.5978 16.4166 13.5978 13.2294V6.85862H13.5977ZM14.7208 3.70899C14.0964 3.02439 13.6864 2.13966 13.5977 1.16155V0.76001H12.735C12.9521 2.00318 13.6929 3.06527 14.7208 3.70899ZM5.74486 14.8183C5.39599 14.3592 5.20746 13.7977 5.20831 13.2203C5.20831 11.7626 6.38583 10.5808 7.83859 10.5808C8.10933 10.5807 8.37845 10.6223 8.63647 10.7045V7.51278C8.33494 7.4713 8.03062 7.4537 7.72643 7.46015V9.94441C7.46822 9.86225 7.19897 9.82051 6.92817 9.82078C5.47541 9.82078 4.29795 11.0025 4.29795 12.4604C4.29795 13.4911 4.88652 14.3836 5.74486 14.8183Z" fill="#FF004F"/>
<path d="M12.6874 6.0985C13.9096 6.97495 15.4062 7.49067 17.0226 7.49067V5.03328C16.1203 4.8404 15.3215 4.36719 14.721 3.70899C13.6929 3.06521 12.9523 2.00311 12.7351 0.76001H10.4689V13.2293C10.4638 14.6829 9.28824 15.86 7.8386 15.86C6.98435 15.86 6.22544 15.4513 5.7448 14.8183C4.88653 14.3836 4.29796 13.4911 4.29796 12.4604C4.29796 11.0027 5.47542 9.82084 6.92818 9.82084C7.20652 9.82084 7.47479 9.86433 7.72644 9.94447V7.46022C4.60669 7.5249 2.09766 10.0831 2.09766 13.2293C2.09766 14.7999 2.72246 16.2237 3.73653 17.264C4.65137 17.8805 5.75266 18.24 6.93753 18.24C10.1131 18.24 12.6875 15.6565 12.6875 12.4695V6.0985H12.6874Z" fill="black"/>
<path d="M17.0228 5.03326V4.3688C16.2092 4.37004 15.4115 4.14136 14.7212 3.70891C15.3323 4.38034 16.137 4.84331 17.0228 5.03326ZM12.7353 0.759987C12.7146 0.64118 12.6987 0.52159 12.6876 0.401544V0H9.5586V12.4694C9.5536 13.9229 8.37814 15.0999 6.92838 15.0999C6.50275 15.0999 6.10089 14.9985 5.745 14.8183C6.22564 15.4513 6.98455 15.8599 7.8388 15.8599C9.28831 15.8599 10.464 14.683 10.4691 13.2293V0.759987H12.7353ZM7.72678 7.4602V6.75283C7.46532 6.71697 7.20172 6.69897 6.93779 6.6991C3.76193 6.69904 1.1875 9.2826 1.1875 12.4694C1.1875 14.4673 2.1993 16.2281 3.7368 17.2639C2.72273 16.2236 2.09792 14.7998 2.09792 13.2292C2.09792 10.0831 4.60689 7.52488 7.72678 7.4602Z" fill="#00F2EA"/>
</svg>
