<svg width="19" height="19" viewBox="0 0 19 19" fill="none" xmlns="http://www.w3.org/2000/svg">
<path d="M0 19L1.33554 14.121C0.511415 12.6928 0.0783748 11.0738 0.0791665 9.41371C0.0815415 4.22354 4.30507 0 9.49444 0C12.0127 0.000791667 14.3766 0.981667 16.1547 2.76133C17.932 4.541 18.9105 6.9065 18.9097 9.42242C18.9073 14.6134 14.6838 18.8369 9.49444 18.8369C7.91902 18.8361 6.36657 18.4411 4.99145 17.6906L0 19ZM5.22261 15.9861C6.54944 16.7738 7.81611 17.2457 9.49127 17.2465C13.8043 17.2465 17.3177 13.7362 17.32 9.42083C17.3216 5.09675 13.8248 1.59125 9.4976 1.58967C5.18145 1.58967 1.67041 5.09992 1.66883 9.4145C1.66804 11.176 2.1842 12.4949 3.05108 13.8747L2.2602 16.7628L5.22261 15.9861ZM14.2373 11.6605C14.1787 11.5623 14.022 11.5037 13.7861 11.3857C13.5509 11.2678 12.3943 10.6986 12.1782 10.6202C11.9628 10.5418 11.8061 10.5023 11.6486 10.7382C11.4918 10.9733 11.0406 11.5037 10.9036 11.6605C10.7666 11.8172 10.6289 11.837 10.3938 11.719C10.1586 11.6011 9.40023 11.3533 8.50169 10.5513C7.80265 9.9275 7.33003 9.15721 7.19307 8.92129C7.05611 8.68617 7.17882 8.55871 7.29598 8.44154C7.40207 8.33625 7.53111 8.16683 7.64907 8.02908C7.76861 7.89292 7.8074 7.79475 7.88657 7.63721C7.96494 7.48046 7.92615 7.34271 7.86678 7.22475C7.8074 7.10758 7.33715 5.94938 7.14161 5.47833C6.95003 5.01996 6.75607 5.08171 6.61199 5.07458L6.16074 5.06667C6.00399 5.06667 5.74907 5.12525 5.53374 5.36117C5.31841 5.59708 4.71041 6.1655 4.71041 7.32371C4.71041 8.48192 5.55353 9.60054 5.6707 9.75729C5.78865 9.91404 7.32923 12.2906 9.68919 13.3095C10.2505 13.5518 10.6891 13.6966 11.0303 13.8051C11.5939 13.984 12.1069 13.9587 12.5123 13.8985C12.9643 13.8312 13.904 13.3293 14.1003 12.7799C14.2967 12.2297 14.2967 11.7586 14.2373 11.6605Z" fill="#25D366"/>
</svg>
