<svg width="19" height="19" viewBox="0 0 19 19" fill="none" xmlns="http://www.w3.org/2000/svg">
<g clip-path="url(#clip0_783_3146)">
<path d="M18.6213 4.89682C18.5139 4.49261 18.3022 4.1237 18.0074 3.82701C17.7126 3.53032 17.345 3.31626 16.9415 3.20626C15.4561 2.80682 9.51855 2.80682 9.51855 2.80682C9.51855 2.80682 3.58105 2.80682 2.0956 3.20626C1.69208 3.31626 1.32453 3.53032 1.02974 3.82701C0.734947 4.1237 0.523247 4.49261 0.415827 4.89682C0.0185547 6.38876 0.0185547 9.50001 0.0185547 9.50001C0.0185547 9.50001 0.0185547 12.6113 0.415827 14.1032C0.523247 14.5074 0.734947 14.8763 1.02974 15.173C1.32453 15.4697 1.69208 15.6837 2.0956 15.7938C3.58105 16.1932 9.51855 16.1932 9.51855 16.1932C9.51855 16.1932 15.4561 16.1932 16.9415 15.7938C17.345 15.6837 17.7126 15.4697 18.0074 15.173C18.3022 14.8763 18.5139 14.5074 18.6213 14.1032C19.0186 12.6113 19.0186 9.50001 19.0186 9.50001C19.0186 9.50001 19.0186 6.38876 18.6213 4.89682Z" fill="#FF0302"/>
<path d="M7.5752 12.3252V6.67487L12.5411 9.50004L7.5752 12.3252Z" fill="#FEFEFE"/>
</g>
<defs>
<clipPath id="clip0_783_3146">
<rect width="19" height="19" fill="white"/>
</clipPath>
</defs>
</svg>
